<mxfile host="65bd71144e">
    <diagram id="kaDSRoGmf5ZaQqYn9ZpJ" name="Page-1">
        <mxGraphModel dx="1074" dy="899" grid="0" gridSize="10" guides="1" tooltips="1" connect="1" arrows="1" fold="1" page="1" pageScale="1" pageWidth="3300" pageHeight="4681" math="0" shadow="0">
            <root>
                <mxCell id="0"/>
                <mxCell id="1" parent="0"/>
                <mxCell id="PObQ90E0Y6O0iQnI_uE_-1" value="&lt;span style=&quot;color: rgb(0, 0, 0); font-size: 14px;&quot;&gt;ProducerApp&lt;/span&gt;" style="rounded=1;whiteSpace=wrap;html=1;fillColor=#dae8fc;strokeColor=#6c8ebf;arcSize=12;" parent="1" vertex="1">
                    <mxGeometry x="100" y="180" width="160" height="80" as="geometry"/>
                </mxCell>
                <mxCell id="PObQ90E0Y6O0iQnI_uE_-2" value="&lt;span style=&quot;color: rgb(0, 0, 0); font-size: 14px;&quot;&gt;ConsumerApp&lt;/span&gt;" style="rounded=1;whiteSpace=wrap;html=1;fillColor=#dae8fc;strokeColor=#6c8ebf;arcSize=12;" parent="1" vertex="1">
                    <mxGeometry x="790" y="180" width="160" height="80" as="geometry"/>
                </mxCell>
                <mxCell id="PObQ90E0Y6O0iQnI_uE_-4" value="&lt;span style=&quot;color: rgb(0, 0, 0); font-size: 14px;&quot;&gt;Apache Kafka Cluster&lt;/span&gt;" style="shape=datastore;whiteSpace=wrap;html=1;fillColor=#fff2cc;strokeColor=#d6b656;" parent="1" vertex="1">
                    <mxGeometry x="460" y="165" width="120" height="110" as="geometry"/>
                </mxCell>
                <mxCell id="PObQ90E0Y6O0iQnI_uE_-5" value="" style="endArrow=classic;html=1;rounded=0;entryX=0;entryY=0.5;entryDx=0;entryDy=0;exitX=1;exitY=0.5;exitDx=0;exitDy=0;" parent="1" source="PObQ90E0Y6O0iQnI_uE_-1" target="PObQ90E0Y6O0iQnI_uE_-4" edge="1">
                    <mxGeometry width="50" height="50" relative="1" as="geometry">
                        <mxPoint x="350" y="250" as="sourcePoint"/>
                        <mxPoint x="470" y="210" as="targetPoint"/>
                    </mxGeometry>
                </mxCell>
                <mxCell id="PObQ90E0Y6O0iQnI_uE_-6" value="2. Sends avro messages&lt;br&gt;(Order Data)" style="edgeLabel;html=1;align=center;verticalAlign=middle;resizable=0;points=[];" parent="PObQ90E0Y6O0iQnI_uE_-5" vertex="1" connectable="0">
                    <mxGeometry x="-0.0161" y="2" relative="1" as="geometry">
                        <mxPoint as="offset"/>
                    </mxGeometry>
                </mxCell>
                <mxCell id="PObQ90E0Y6O0iQnI_uE_-7" value="" style="endArrow=classic;html=1;rounded=0;entryX=0;entryY=0.5;entryDx=0;entryDy=0;exitX=1;exitY=0.5;exitDx=0;exitDy=0;" parent="1" source="PObQ90E0Y6O0iQnI_uE_-4" target="PObQ90E0Y6O0iQnI_uE_-2" edge="1">
                    <mxGeometry width="50" height="50" relative="1" as="geometry">
                        <mxPoint x="590" y="250" as="sourcePoint"/>
                        <mxPoint x="700" y="210" as="targetPoint"/>
                    </mxGeometry>
                </mxCell>
                <mxCell id="PObQ90E0Y6O0iQnI_uE_-8" value="3. consumes avro messages&lt;br&gt;(Order Data)" style="edgeLabel;html=1;align=center;verticalAlign=middle;resizable=0;points=[];" parent="PObQ90E0Y6O0iQnI_uE_-7" vertex="1" connectable="0">
                    <mxGeometry x="-0.2336" y="-1" relative="1" as="geometry">
                        <mxPoint as="offset"/>
                    </mxGeometry>
                </mxCell>
                <mxCell id="PObQ90E0Y6O0iQnI_uE_-9" value="Schema Registry" style="shape=cylinder3;whiteSpace=wrap;html=1;boundedLbl=1;backgroundOutline=1;size=15;fillColor=#e1d5e7;strokeColor=#9673a6;" parent="1" vertex="1">
                    <mxGeometry x="470" y="350" width="100" height="80" as="geometry"/>
                </mxCell>
                <mxCell id="PObQ90E0Y6O0iQnI_uE_-10" value="" style="endArrow=classic;html=1;rounded=0;exitX=0.5;exitY=1;exitDx=0;exitDy=0;entryX=0.21;entryY=-0.008;entryDx=0;entryDy=0;entryPerimeter=0;" parent="1" source="PObQ90E0Y6O0iQnI_uE_-1" target="PObQ90E0Y6O0iQnI_uE_-9" edge="1">
                    <mxGeometry width="50" height="50" relative="1" as="geometry">
                        <mxPoint x="270" y="260" as="sourcePoint"/>
                        <mxPoint x="480" y="10" as="targetPoint"/>
                        <Array as="points">
                            <mxPoint x="260" y="310"/>
                            <mxPoint x="491" y="310"/>
                        </Array>
                    </mxGeometry>
                </mxCell>
                <mxCell id="PObQ90E0Y6O0iQnI_uE_-11" value="1. Validate/Register Schema" style="edgeLabel;html=1;align=center;verticalAlign=middle;resizable=0;points=[];" parent="PObQ90E0Y6O0iQnI_uE_-10" vertex="1" connectable="0">
                    <mxGeometry x="-0.5238" y="-1" relative="1" as="geometry">
                        <mxPoint y="-10" as="offset"/>
                    </mxGeometry>
                </mxCell>
                <mxCell id="PObQ90E0Y6O0iQnI_uE_-12" value="" style="endArrow=classic;html=1;rounded=0;exitX=0.79;exitY=-0.008;exitDx=0;entryDy=0;entryPerimeter=0;entryX=0.5;entryY=1;entryDx=0;entryDy=0;" parent="1" source="PObQ90E0Y6O0iQnI_uE_-9" target="PObQ90E0Y6O0iQnI_uE_-2" edge="1">
                    <mxGeometry width="50" height="50" relative="1" as="geometry">
                        <mxPoint x="630" y="360" as="sourcePoint"/>
                        <mxPoint x="780" y="260" as="targetPoint"/>
                        <Array as="points">
                            <mxPoint x="549" y="310"/>
                            <mxPoint x="770" y="310"/>
                        </Array>
                    </mxGeometry>
                </mxCell>
                <mxCell id="PObQ90E0Y6O0iQnI_uE_-13" value="4. Request schema (if not cached)" style="edgeLabel;html=1;align=center;verticalAlign=middle;resizable=0;points=[];" parent="PObQ90E0Y6O0iQnI_uE_-12" vertex="1" connectable="0">
                    <mxGeometry x="-0.3522" y="1" relative="1" as="geometry">
                        <mxPoint y="-9" as="offset"/>
                    </mxGeometry>
                </mxCell>
                <mxCell id="2" value="Kafka Clients with JSON&lt;div&gt;Producing and Consuming Order Events&lt;/div&gt;" style="text;html=1;strokeColor=none;fillColor=none;align=center;verticalAlign=middle;whiteSpace=wrap;rounded=0;fontSize=20;fontStyle=1;" parent="1" vertex="1">
                    <mxGeometry x="100" y="500" width="680" height="60" as="geometry"/>
                </mxCell>
                <mxCell id="3" value="ProducerApp" style="rounded=1;whiteSpace=wrap;html=1;fillColor=#dae8fc;strokeColor=#6c8ebf;arcSize=10;fontSize=14;" parent="1" vertex="1">
                    <mxGeometry x="100" y="590" width="120" height="80" as="geometry"/>
                </mxCell>
                <mxCell id="4" value="Apache Kafka Cluster" style="shape=cylinder3;whiteSpace=wrap;html=1;boundedLbl=1;backgroundOutline=1;size=15;fillColor=#ffe6cc;strokeColor=#d79b00;fontSize=14;" parent="1" vertex="1">
                    <mxGeometry x="380" y="570" width="120" height="120" as="geometry"/>
                </mxCell>
                <mxCell id="5" value="ConsumerApp" style="rounded=1;whiteSpace=wrap;html=1;fillColor=#dae8fc;strokeColor=#6c8ebf;arcSize=10;fontSize=14;" parent="1" vertex="1">
                    <mxGeometry x="660" y="590" width="120" height="80" as="geometry"/>
                </mxCell>
                <mxCell id="6" value="" style="endArrow=classic;html=1;rounded=0;strokeWidth=2;strokeColor=#000000;" parent="1" edge="1">
                    <mxGeometry width="50" height="50" relative="1" as="geometry">
                        <mxPoint x="240" y="630" as="sourcePoint"/>
                        <mxPoint x="360" y="630" as="targetPoint"/>
                    </mxGeometry>
                </mxCell>
                <mxCell id="7" value="" style="endArrow=classic;html=1;rounded=0;strokeWidth=2;strokeColor=#000000;" parent="1" edge="1">
                    <mxGeometry width="50" height="50" relative="1" as="geometry">
                        <mxPoint x="520" y="630" as="sourcePoint"/>
                        <mxPoint x="650" y="630" as="targetPoint"/>
                    </mxGeometry>
                </mxCell>
                <mxCell id="8" value="Order&lt;br&gt;{ JSON }" style="text;html=1;strokeColor=none;fillColor=none;align=center;verticalAlign=middle;whiteSpace=wrap;rounded=0;fontSize=12;fontStyle=2;labelBackgroundColor=#ffffff;labelBorderColor=none;" parent="1" vertex="1">
                    <mxGeometry x="260" y="590" width="80" height="40" as="geometry"/>
                </mxCell>
                <mxCell id="9" value="Order&lt;br&gt;{ JSON }" style="text;html=1;strokeColor=none;fillColor=none;align=center;verticalAlign=middle;whiteSpace=wrap;rounded=0;fontSize=12;fontStyle=2;labelBackgroundColor=#ffffff;labelBorderColor=none;" parent="1" vertex="1">
                    <mxGeometry x="540" y="590" width="80" height="40" as="geometry"/>
                </mxCell>
                <mxCell id="10" value="Topic: orders-json" style="text;html=1;strokeColor=none;fillColor=none;align=center;verticalAlign=middle;whiteSpace=wrap;rounded=0;fontSize=12;fontStyle=1;" parent="1" vertex="1">
                    <mxGeometry x="380" y="695" width="120" height="30" as="geometry"/>
                </mxCell>
                <mxCell id="11" value="Generates &lt;b&gt;Order&lt;/b&gt; objects,&lt;br&gt;serializes to JSON,&lt;br&gt;sends to Kafka." style="text;html=1;strokeColor=none;fillColor=none;align=center;verticalAlign=middle;whiteSpace=wrap;rounded=0;fontSize=10;" parent="1" vertex="1">
                    <mxGeometry x="80" y="680" width="160" height="60" as="geometry"/>
                </mxCell>
                <mxCell id="12" value="Consumes &lt;b&gt;Order&lt;/b&gt; messages,&lt;br&gt;deserializes from JSON,&lt;br&gt;processes." style="text;html=1;strokeColor=none;fillColor=none;align=center;verticalAlign=middle;whiteSpace=wrap;rounded=0;fontSize=10;" parent="1" vertex="1">
                    <mxGeometry x="640" y="680" width="160" height="60" as="geometry"/>
                </mxCell>
                <mxCell id="13" value="Kafka Clients with Avro&lt;div&gt;Schema Registry and Order Events&lt;/div&gt;" style="text;html=1;strokeColor=none;fillColor=none;align=center;verticalAlign=middle;whiteSpace=wrap;rounded=0;fontSize=20;fontStyle=1;" parent="1" vertex="1">
                    <mxGeometry x="190" y="90" width="680" height="60" as="geometry"/>
                </mxCell>
            </root>
        </mxGraphModel>
    </diagram>
</mxfile>